<svg id="Laag_1" data-name="Laag 1" xmlns="http://www.w3.org/2000/svg" viewBox="0 0 1000 1000"><path d="M697.55,377.05c-4.78-22.67-8.36-39.38-21.49-59.68-40.58-63.26-126.52-65.65-142-65.65-19.09,0-59.67,1.2-102.65,26.26-102.65,58.49-96.68,201.73-96.68,223.21,0,32.23,2.39,69.23,10.75,100.27,17.9,62.07,63.26,115.78,125.32,137.27,15.52,4.77,34.62,10.74,70.43,10.74,40.58,0,83.55-9.55,115.78-35.81a114.19,114.19,0,0,0,27.46-31c10.74-20.3,14.32-46.56,15.51-52.52H543.57V460.61H930.3V927.32H732.16V868.83c-25.07,17.91-44.17,29.85-54.91,35.81C598.48,946.42,504.18,950,477.92,950c-29.85,0-101.46-2.39-176.66-37C218.9,873.61,63.73,757.83,63.73,511.94c0-53.72,7.15-197,109.81-316.32C260.67,94.16,382.42,50,512.53,50c136.08,0,288.86,48.94,373.61,161.14,31,41.78,43,80,50.13,99.07Z"/></svg>