<svg id="Laag_1" data-name="Laag 1" xmlns="http://www.w3.org/2000/svg" viewBox="0 0 1000 1000"><path d="M612.18,950,437.53,632.58H354.68V950H69.12V50h487c25.49,0,52.27,1.27,77.76,3.82,39.52,3.82,154.25,14,219.27,122.39,15.3,26.77,42.06,82.85,42.06,161.89,0,85.42-33.14,163.18-105.8,211.62-19.13,12.74-35.7,20.39-79,37L930.88,950ZM593.06,279.47c-8.92-12.75-21.67-20.41-26.77-23-29.32-16.58-62.46-17.85-95.61-17.85h-116V447.73H473.23c52.26,0,110.91-6.37,131.3-65,1.28-5.1,6.38-21.67,6.38-39.52C610.91,321.53,604.53,297.31,593.06,279.47Z"/></svg>